<?xml version="1.0" standalone="no"?>
<!DOCTYPE svg PUBLIC "-//W3C//DTD SVG 20010904//EN"
 "http://www.w3.org/TR/2001/REC-SVG-20010904/DTD/svg10.dtd">
<svg version="1.0" xmlns="http://www.w3.org/2000/svg"
 width="996.000000pt" height="996.000000pt" viewBox="0 0 996.000000 996.000000"
 preserveAspectRatio="xMidYMid meet">
<metadata>
Created by potrace 1.11, written by Peter Selinger 2001-2013
</metadata>
<g transform="translate(0.000000,996.000000) scale(0.100000,-0.100000)"
fill="#000000" stroke="none">
<path d="M505 8629 c-26 -8 -52 -14 -92 -23 -6 -1 -42 -17 -80 -36 -98 -50
-216 -171 -264 -270 -20 -41 -40 -91 -45 -110 -4 -19 -10 -42 -12 -50 -3 -8
-5 -59 -7 -113 -2 -116 15 -189 74 -320 11 -24 30 -68 41 -98 12 -29 32 -77
46 -107 13 -29 24 -54 24 -56 0 -2 8 -21 17 -42 9 -22 17 -41 18 -44 1 -3 6
-16 12 -30 84 -200 113 -271 113 -280 0 -5 5 -10 11 -10 5 0 8 -4 4 -9 -3 -5
-1 -12 5 -16 5 -3 10 -13 10 -20 0 -8 12 -40 26 -72 37 -82 50 -111 74 -172
11 -30 30 -73 40 -96 10 -23 28 -66 40 -95 12 -29 29 -72 39 -94 10 -23 40
-93 66 -156 25 -63 55 -132 66 -153 10 -22 19 -42 19 -47 0 -4 10 -29 22 -56
12 -27 23 -51 23 -54 2 -7 20 -49 71 -168 25 -59 47 -111 48 -117 1 -5 10 -25
19 -42 10 -18 15 -33 11 -33 -4 0 -2 -6 4 -13 6 -6 20 -36 32 -66 11 -30 30
-74 41 -97 10 -24 19 -50 19 -58 0 -8 4 -17 8 -20 5 -3 21 -38 37 -78 16 -40
32 -77 37 -83 4 -5 8 -17 8 -27 0 -10 4 -18 8 -18 5 0 9 -6 9 -12 0 -7 8 -31
17 -53 9 -22 16 -40 14 -40 -1 0 5 -13 15 -30 9 -16 39 -86 68 -155 28 -69 57
-138 64 -155 7 -16 59 -140 115 -275 56 -135 111 -263 121 -286 10 -22 28 -65
39 -95 12 -29 32 -77 46 -107 13 -29 24 -54 24 -57 0 -2 61 -148 135 -324 74
-177 135 -323 135 -326 0 -2 11 -28 24 -57 14 -29 72 -168 131 -308 146 -353
176 -423 185 -440 4 -9 26 -61 48 -117 23 -56 50 -121 61 -145 10 -24 36 -83
56 -133 21 -49 44 -106 52 -125 8 -19 19 -44 23 -55 51 -128 106 -245 137
-293 38 -57 158 -172 179 -172 8 0 14 -4 14 -9 0 -7 50 -30 70 -32 3 0 11 -6
19 -12 7 -6 18 -12 25 -14 106 -24 149 -31 206 -31 64 0 145 11 180 25 8 3 20
7 25 8 14 3 95 42 119 58 42 26 52 34 115 98 79 80 91 94 91 110 0 7 6 20 14
28 8 9 27 52 42 96 24 69 28 96 28 195 0 120 -15 181 -75 317 -29 65 -34 78
-65 153 -37 92 -54 132 -66 154 -5 10 -16 35 -23 55 -7 20 -49 122 -93 226
-104 246 -106 249 -104 258 1 4 -3 7 -10 7 -6 0 -9 3 -5 6 3 4 -5 28 -19 55
-13 27 -25 52 -25 56 0 5 -8 24 -16 43 -8 19 -46 112 -85 205 -39 94 -74 175
-78 180 -5 6 -9 15 -10 20 -3 14 -19 56 -30 80 -15 34 -85 200 -85 205 -1 3
-9 23 -19 45 -10 22 -24 56 -31 75 -7 19 -20 51 -28 70 -8 19 -14 38 -14 41 1
3 -3 12 -9 20 -7 8 -28 55 -48 104 -20 50 -41 99 -46 110 -32 70 -90 212 -90
223 0 6 -4 12 -10 12 -5 0 -10 9 -10 19 0 11 -5 23 -10 26 -6 4 -8 10 -5 14 2
5 -2 17 -10 27 -8 10 -15 25 -15 31 0 7 -16 47 -35 89 -19 41 -35 77 -35 80 0
5 -72 176 -106 252 -13 29 -24 57 -24 62 0 6 -4 18 -9 28 -5 9 -19 40 -31 67
-12 28 -29 64 -38 80 -9 17 -15 30 -13 30 1 0 -1 9 -5 20 -6 18 -15 38 -54
130 -4 11 -27 65 -50 120 -23 55 -48 114 -55 130 -7 17 -29 71 -50 120 -20 50
-41 99 -46 110 -5 11 -70 166 -145 345 -75 179 -141 339 -148 355 -31 73 -57
135 -86 205 -17 41 -38 89 -46 107 -8 17 -14 34 -14 37 0 3 -11 29 -24 58 -23
53 -31 74 -36 93 -1 6 -9 19 -16 30 -8 11 -14 27 -14 37 0 10 -5 18 -12 18 -6
0 -8 3 -5 6 3 4 1 16 -5 28 -7 11 -13 23 -14 26 -2 8 -16 42 -44 105 -14 33
-27 63 -29 67 -2 9 -19 49 -79 193 -26 61 -47 112 -47 115 -1 3 -8 21 -17 40
-8 19 -27 64 -42 100 -15 36 -36 84 -47 107 -10 24 -19 45 -19 48 0 10 -65
140 -75 151 -5 6 -21 26 -35 44 -104 139 -293 228 -482 228 -46 0 -96 -4 -113
-9z"/>
<path d="M9235 8629 c-22 -5 -44 -11 -50 -12 -5 -2 -23 -8 -40 -12 -16 -5 -43
-16 -60 -26 -16 -10 -44 -25 -62 -34 -41 -21 -141 -119 -179 -176 -32 -47 -63
-110 -95 -193 -11 -28 -27 -66 -35 -83 -28 -65 -43 -100 -79 -183 -21 -47 -48
-109 -61 -138 -13 -29 -35 -79 -49 -112 -25 -59 -58 -135 -97 -220 -23 -50
-41 -93 -42 -100 -1 -3 -14 -31 -29 -64 -15 -32 -27 -60 -27 -62 0 -2 -16 -38
-35 -80 -19 -41 -35 -77 -35 -78 0 -2 -10 -25 -22 -52 -12 -27 -23 -51 -23
-54 -1 -3 -12 -27 -24 -55 -12 -27 -28 -63 -36 -80 -7 -16 -22 -50 -33 -75
-11 -25 -32 -74 -47 -110 -15 -36 -31 -69 -36 -74 -5 -6 -9 -15 -9 -22 0 -7
-15 -45 -34 -86 -28 -60 -84 -189 -181 -413 -17 -38 -49 -112 -76 -172 -12
-27 -44 -100 -71 -163 -28 -63 -65 -148 -84 -188 -31 -67 -56 -141 -70 -203
-3 -13 -5 -60 -5 -104 0 -70 3 -99 15 -140 2 -5 6 -23 11 -40 14 -53 74 -159
120 -212 76 -86 199 -164 300 -189 17 -4 37 -9 45 -11 20 -5 211 -6 230 0 13
3 96 28 110 32 28 9 83 39 117 64 24 17 45 31 48 31 12 0 99 100 130 150 18
30 70 141 115 245 45 105 87 196 92 203 6 6 8 12 4 12 -3 0 3 17 13 38 11 20
74 163 141 317 66 154 127 294 135 310 7 17 30 68 50 115 21 47 45 103 55 125
10 22 40 92 68 155 27 63 76 174 107 245 32 72 77 175 100 230 24 55 56 129
73 165 16 36 40 90 52 120 22 53 39 91 94 213 14 32 26 64 26 72 0 8 4 15 9
15 5 0 12 11 15 25 4 14 19 51 33 83 15 31 28 59 28 62 2 7 20 47 52 120 27
60 38 91 50 145 3 11 5 70 6 130 1 142 -25 231 -100 338 -83 121 -190 197
-348 247 -48 16 -214 21 -270 9z"/>
<path d="M4870 8570 c-41 -9 -102 -33 -136 -51 -157 -87 -227 -172 -318 -384
-21 -49 -49 -113 -62 -140 -12 -28 -32 -73 -43 -101 -11 -29 -29 -71 -40 -95
-11 -24 -47 -109 -81 -189 -34 -80 -70 -163 -80 -185 -10 -22 -37 -85 -60
-140 -23 -55 -51 -120 -62 -145 -11 -25 -26 -58 -33 -75 -19 -41 -41 -98 -44
-110 -2 -5 -9 -21 -16 -35 -31 -60 -58 -125 -58 -137 0 -7 -4 -13 -8 -13 -4 0
-13 -17 -19 -37 -6 -21 -23 -62 -36 -91 -13 -29 -24 -54 -24 -57 0 -3 -35 -82
-70 -160 -19 -41 -33 -80 -32 -87 1 -5 -2 -8 -7 -8 -5 0 -11 -10 -14 -22 -3
-13 -28 -75 -56 -138 -28 -63 -51 -116 -51 -118 0 -1 -11 -28 -26 -60 -43 -95
-54 -120 -54 -125 0 -3 -14 -36 -31 -74 -30 -68 -33 -75 -64 -148 -9 -22 -22
-51 -29 -65 -8 -14 -26 -61 -42 -105 -24 -69 -28 -95 -28 -190 0 -60 3 -121 6
-135 3 -14 10 -38 14 -55 32 -127 167 -295 291 -363 148 -81 325 -98 493 -48
44 12 140 59 140 68 0 4 7 8 16 8 19 0 174 155 174 174 0 8 3 16 8 18 7 3 62
108 62 120 0 4 13 35 29 70 16 35 41 92 56 128 15 36 35 83 45 105 23 51 32
72 123 285 41 96 82 191 90 210 36 83 57 131 97 225 23 55 52 123 64 150 12
28 28 65 36 83 16 40 19 37 54 -53 16 -38 34 -83 41 -100 7 -16 34 -82 59
-145 26 -63 53 -129 61 -147 8 -17 15 -34 15 -37 0 -3 8 -25 19 -49 27 -63 39
-91 87 -212 25 -60 49 -119 54 -130 23 -48 98 -237 97 -245 0 -3 6 -16 13 -30
8 -14 15 -29 16 -35 1 -5 12 -32 24 -60 40 -90 50 -113 50 -118 0 -2 8 -22 17
-43 9 -22 17 -41 18 -44 2 -5 9 -23 57 -139 18 -42 32 -78 31 -81 0 -3 7 -21
17 -40 10 -19 41 -93 70 -165 29 -71 68 -168 87 -215 20 -47 44 -107 55 -135
20 -51 34 -85 58 -140 8 -16 14 -32 15 -35 1 -3 5 -14 10 -25 4 -11 17 -42 27
-70 11 -27 25 -63 33 -80 7 -16 23 -55 35 -85 13 -30 30 -71 38 -90 9 -19 17
-39 18 -45 2 -9 71 -180 96 -235 16 -38 24 -56 72 -175 69 -172 116 -288 126
-310 19 -43 72 -171 74 -180 2 -5 8 -21 13 -35 6 -14 23 -54 37 -90 29 -69 35
-85 59 -140 9 -19 30 -71 47 -115 17 -44 37 -93 45 -110 7 -16 22 -55 34 -85
12 -30 26 -64 31 -75 27 -58 110 -271 110 -282 0 -7 3 -13 8 -13 4 0 17 -21
29 -47 26 -56 91 -136 150 -184 51 -41 166 -103 208 -113 44 -10 49 -11 60
-18 13 -7 231 -3 269 6 16 4 56 18 90 33 201 84 335 251 376 466 11 62 11 91
-3 250 -1 9 -4 17 -7 17 -4 0 -7 6 -7 13 0 6 -16 53 -36 102 -98 246 -159 393
-173 418 -8 15 -13 27 -9 27 3 0 -1 13 -10 30 -8 16 -38 87 -66 157 -50 126
-61 153 -92 223 -8 19 -24 58 -35 85 -30 78 -122 306 -141 350 -10 22 -26 60
-36 85 -10 25 -24 59 -31 75 -7 17 -13 35 -14 40 -1 6 -7 19 -13 30 -6 11 -12
22 -13 25 -2 10 -76 193 -99 245 -7 17 -31 75 -53 130 -22 55 -48 118 -58 140
-10 22 -19 45 -20 51 -1 6 -9 27 -17 45 -9 19 -48 113 -87 209 -39 96 -75 185
-80 198 -6 12 -14 32 -19 45 -5 12 -16 38 -24 57 -8 19 -56 136 -106 260 -51
124 -96 234 -100 245 -5 11 -30 72 -56 135 -25 63 -50 124 -55 135 -32 72 -90
220 -90 232 0 7 -4 13 -10 13 -5 0 -10 6 -10 13 0 12 -59 164 -90 232 -5 11
-25 60 -45 108 -20 48 -41 100 -47 115 -6 15 -12 29 -13 32 -1 3 -7 18 -13 33
-7 16 -12 30 -12 32 0 3 -11 28 -24 57 -13 29 -47 112 -76 183 -28 72 -58 144
-65 160 -20 45 -38 89 -40 101 -2 6 -10 27 -18 45 -26 57 -50 114 -51 121 -1
3 -4 10 -8 14 -5 4 -8 13 -8 20 0 8 -12 39 -26 71 -28 61 -39 89 -47 113 -3 8
-26 64 -51 125 -25 60 -46 115 -46 121 0 6 -6 17 -14 24 -8 6 -12 18 -9 26 3
8 0 14 -6 14 -6 0 -11 7 -11 15 0 9 -13 43 -28 78 -16 34 -29 65 -31 69 -1 4
-9 25 -18 45 -9 21 -16 44 -16 51 0 6 -4 12 -9 12 -4 0 -7 3 -6 8 1 4 -6 24
-15 46 -9 21 -17 42 -17 46 0 4 -6 20 -14 36 -8 16 -21 47 -31 69 -90 214
-178 316 -342 395 -126 61 -267 75 -413 40z"/>
</g>
</svg>
