<?xml version="1.0" encoding="UTF-8" standalone="no"?>
<svg
   xmlns:dc="http://purl.org/dc/elements/1.1/"
   xmlns:cc="http://creativecommons.org/ns#"
   xmlns:rdf="http://www.w3.org/1999/02/22-rdf-syntax-ns#"
   xmlns:svg="http://www.w3.org/2000/svg"
   xmlns="http://www.w3.org/2000/svg"
   viewBox="0 0 497.51999 365.60001"
   height="365.60001"
   width="497.51999"
   xml:space="preserve"
   id="svg2"
   version="1.1"><metadata
     id="metadata8"><rdf:RDF><cc:Work
         rdf:about=""><dc:format>image/svg+xml</dc:format><dc:type
           rdf:resource="http://purl.org/dc/dcmitype/StillImage" /></cc:Work></rdf:RDF></metadata><defs
     id="defs6" /><g
     transform="matrix(1.3333333,0,0,-1.3333333,0,365.6)"
     id="g10"><g
       transform="scale(0.1)"
       id="g12"><path
         id="path14"
         style="fill:#f0394f;fill-opacity:1;fill-rule:nonzero;stroke:none"
         d="m 1233.32,1572.95 433.67,1008.19 c 0.02,0.04 0.05,0.09 0.07,0.14 l 0.81,1.91 c 1.75,4.06 4.35,7.43 6.3,11.34 4.7,9.46 9.38,18.93 15.35,27.7 4.08,5.98 9,11.07 13.56,16.59 5.07,6.13 9.76,12.48 15.48,18.1 5.74,5.64 12.2,10.24 18.46,15.22 5.56,4.44 10.73,9.25 16.76,13.2 8.49,5.56 17.63,9.84 26.74,14.23 4.35,2.1 8.15,4.89 12.68,6.74 0.35,0.14 0.71,0.17 1.06,0.32 14.1,5.69 28.72,10.08 43.71,12.93 5.58,1.07 11.16,0.89 16.75,1.53 9.46,1.1 18.86,2.57 28.46,2.49 9.32,-0.08 18.39,-1.7 27.55,-2.9 5.89,-0.75 11.77,-0.71 17.64,-1.93 14.89,-3.11 29.39,-7.75 43.35,-13.67 0.36,-0.15 0.75,-0.19 1.12,-0.35 4.8,-2.07 8.82,-5.1 13.4,-7.44 8.69,-4.43 17.47,-8.68 25.57,-14.19 6.12,-4.17 11.36,-9.19 16.97,-13.87 6.02,-4.98 12.27,-9.59 17.77,-15.19 5.65,-5.75 10.27,-12.22 15.24,-18.48 4.44,-5.57 9.26,-10.73 13.21,-16.77 5.58,-8.51 9.87,-17.67 14.27,-26.81 2.09,-4.31 4.85,-8.08 6.7,-12.58 L 3020.63,320.109 C 3069.18,201.449 3012.37,65.9219 2893.71,17.3203 2864.92,5.58203 2835.16,-0.0078125 2805.86,-0.0078125 2714.41,-0.0078125 2627.7,54.4102 2590.92,144.27 L 1875.78,1891.56 1659.81,1389.5 c -37.78,-87.9 -123.38,-140.49 -213.34,-140.49 -30.6,0 -61.76,6.09 -91.63,18.95 -117.8,50.67 -172.21,187.21 -121.52,304.99" /><path
         id="path16"
         style="fill:#f0394f;fill-opacity:1;fill-rule:nonzero;stroke:none"
         d="m 142.438,2723.88 c 118.207,49.58 254.234,-6.1 303.882,-124.3 L 1401.44,321.969 C 1451,203.711 1395.37,67.6914 1277.12,18.0898 1247.78,5.80078 1217.35,-0.0078125 1187.43,-0.0078125 1096.7,-0.0078125 1010.55,53.5 973.234,142.422 L 18.1133,2420.02 c -49.5625,118.23 6.0742,254.28 124.3247,303.86" /><path
         id="path18"
         style="fill:#f0394f;fill-opacity:1;fill-rule:nonzero;stroke:none"
         d="m 1233.32,1572.95 433.67,1008.19 c 0.02,0.04 0.05,0.09 0.07,0.14 l 0.81,1.91 c 1.75,4.06 4.35,7.43 6.3,11.34 4.7,9.46 9.38,18.93 15.35,27.7 4.08,5.98 9,11.07 13.56,16.59 5.07,6.13 9.76,12.48 15.48,18.1 5.74,5.64 12.2,10.24 18.46,15.22 5.56,4.44 10.73,9.25 16.76,13.2 8.49,5.56 17.63,9.84 26.74,14.23 4.35,2.1 8.15,4.89 12.68,6.74 0.35,0.14 0.71,0.17 1.06,0.32 14.1,5.69 28.72,10.08 43.71,12.93 5.58,1.07 11.16,0.89 16.75,1.53 9.46,1.1 18.86,2.57 28.46,2.49 9.32,-0.08 18.39,-1.7 27.55,-2.9 5.89,-0.75 11.77,-0.71 17.64,-1.93 14.89,-3.11 29.39,-7.75 43.35,-13.67 0.36,-0.15 0.75,-0.19 1.12,-0.35 4.8,-2.07 8.82,-5.1 13.4,-7.44 8.69,-4.43 17.47,-8.68 25.57,-14.19 6.12,-4.17 11.36,-9.19 16.97,-13.87 6.02,-4.98 12.27,-9.59 17.77,-15.19 5.65,-5.75 10.27,-12.22 15.24,-18.48 4.44,-5.57 9.26,-10.73 13.21,-16.77 5.58,-8.51 9.87,-17.67 14.27,-26.81 2.09,-4.31 4.85,-8.08 6.7,-12.58 L 3020.63,320.109 C 3069.18,201.449 3012.37,65.9219 2893.71,17.3203 2864.92,5.58203 2835.16,-0.0078125 2805.86,-0.0078125 2714.41,-0.0078125 2627.7,54.4102 2590.92,144.27 L 1875.78,1891.56 1659.81,1389.5 c -37.78,-87.9 -123.38,-140.49 -213.34,-140.49 -30.6,0 -61.76,6.09 -91.63,18.95 -117.8,50.67 -172.21,187.21 -121.52,304.99" /><path
         id="path20"
         style="fill:#f0394f;fill-opacity:1;fill-rule:nonzero;stroke:none"
         d="m 3263.69,1456.22 c 0,-124.65 -101.05,-225.71 -225.71,-225.71 -124.66,0 -225.71,101.06 -225.71,225.71 0,124.66 101.05,225.72 225.71,225.72 124.66,0 225.71,-101.06 225.71,-225.72" /><path
         id="path22"
         style="fill:#f0394f;fill-opacity:1;fill-rule:nonzero;stroke:none"
         d="m 3492.74,1977.05 c 0,-124.66 -101.06,-225.71 -225.72,-225.71 -124.66,0 -225.71,101.05 -225.71,225.71 0,124.66 101.05,225.71 225.71,225.71 124.66,0 225.72,-101.05 225.72,-225.71" /><path
         id="path24"
         style="fill:#f0394f;fill-opacity:1;fill-rule:nonzero;stroke:none"
         d="m 3718.45,2497.88 c 0,-124.67 -101.06,-225.72 -225.71,-225.72 -124.66,0 -225.72,101.05 -225.72,225.72 0,124.65 101.06,225.71 225.72,225.71 124.65,0 225.71,-101.06 225.71,-225.71" /><path
         id="path26"
         style="fill:#f0394f;fill-opacity:1;fill-rule:nonzero;stroke:none"
         d="m 3471.38,1870.76 c 4.76,12.4 14.81,31.7 22.05,50.46 l 218.82,500.76 c 0.61,1.41 1.26,2.79 1.83,4.2 l 0.58,1.3 -0.09,0.03 c 10.81,26.56 16.88,55.55 16.88,85.99 0,126.2 -102.3,228.5 -228.5,228.5 -100.61,0 -185.85,-65.12 -216.35,-155.43 l -0.1,0.04 -452.42,-1034.2 0.1,-0.04 c -12.8,-28.53 -20.09,-60.07 -20.09,-93.36 0,-126.2 102.31,-228.5 228.5,-228.5 88.59,0 165.24,50.52 203.15,124.22 l 0.12,-0.06 1.41,3.22 c 3.19,6.46 6.08,13.06 8.67,19.84 l 215.44,493.03" /></g></g></svg>